<?xml version="1.0" standalone="no"?>
<!DOCTYPE svg PUBLIC "-//W3C//DTD SVG 20010904//EN"
 "http://www.w3.org/TR/2001/REC-SVG-20010904/DTD/svg10.dtd">
<svg version="1.0" xmlns="http://www.w3.org/2000/svg"
 width="400.000000pt" height="400.000000pt" viewBox="0 0 400.000000 400.000000"
 preserveAspectRatio="xMidYMid meet">
<metadata>
Created by potrace 1.15, written by Peter Selinger 2001-2017
</metadata>
<g transform="translate(0.000000,400.000000) scale(0.100000,-0.100000)"
fill="#000000" stroke="none">
<path d="M760 3730 c-20 -20 -20 -35 -22 -1422 -2 -772 -3 -1459 -3 -1526 l0
-124 29 -25 29 -25 659 4 658 3 0 -163 c0 -160 0 -163 25 -187 39 -40 60 -32
151 57 l84 81 73 -73 c87 -85 100 -94 130 -84 42 13 46 31 47 202 0 122 3 162
13 162 6 1 137 0 290 0 l277 -1 25 25 25 25 0 1526 c0 1512 0 1525 -20 1545
-20 20 -33 20 -1235 20 -1202 0 -1215 0 -1235 -20z m1823 -116 l527 -7 0
-1429 0 -1428 -245 0 -245 0 0 180 0 180 38 0 c21 0 48 7 60 16 20 14 22 23
22 106 l0 91 65 68 c47 49 65 74 65 94 0 20 -18 45 -65 94 l-65 68 0 88 c0
120 -5 125 -123 125 l-90 0 -68 65 c-41 40 -76 65 -89 65 -13 0 -48 -25 -89
-65 l-68 -65 -91 0 c-86 0 -92 -1 -111 -26 -18 -22 -21 -41 -21 -113 l0 -87
-60 -59 c-81 -80 -81 -100 0 -180 l60 -59 0 -87 c0 -106 14 -129 81 -138 l44
-6 -2 -168 c-2 -92 -3 -172 -3 -177 0 -7 -219 -10 -615 -10 l-615 0 0 1420 c0
781 0 1423 0 1428 0 16 1007 26 1703 16z m-148 -1843 c38 -40 41 -41 107 -41
l68 0 0 -60 c0 -69 13 -101 64 -149 l35 -34 -49 -54 c-50 -54 -50 -55 -50
-124 l0 -69 -69 0 c-69 0 -70 0 -124 -50 l-54 -49 -48 49 c-48 49 -49 49 -119
52 l-71 3 -3 71 c-3 69 -4 72 -47 114 -25 24 -45 49 -45 55 0 6 20 31 45 55
l45 44 0 73 0 73 71 0 70 0 52 49 c58 55 60 55 122 -8z m50 -1289 c-3 -3 -25
13 -48 36 -56 55 -83 55 -137 2 -22 -22 -43 -40 -45 -40 -2 0 -6 131 -7 290
-2 180 1 290 7 290 5 0 26 -16 47 -37 52 -51 86 -49 141 5 l42 42 3 -291 c1
-161 0 -294 -3 -297z"/>
<path d="M1138 3352 c-35 -29 -35 -55 -3 -88 l24 -24 842 2 c819 3 841 3 855
22 20 28 17 70 -6 91 -18 16 -69 17 -852 19 l-832 1 -28 -23z"/>
<path d="M1135 2975 c-30 -29 -31 -45 -4 -79 l20 -26 843 0 c804 0 844 1 859
18 24 26 21 67 -5 92 -22 20 -30 20 -855 20 l-834 0 -24 -25z"/>
<path d="M1131 2594 c-27 -34 -26 -50 4 -79 l24 -25 834 0 c825 0 833 0 855
20 27 25 29 71 4 93 -17 16 -91 17 -860 17 l-841 0 -20 -26z"/>
<path d="M1135 2225 c-31 -30 -32 -55 -1 -84 l24 -22 838 0 c763 1 839 3 856
18 24 21 23 68 -2 93 -20 20 -33 20 -855 20 l-836 0 -24 -25z"/>
<path d="M1170 1873 c-27 -11 -60 -46 -60 -65 0 -10 11 -30 25 -43 l24 -25
301 0 301 0 24 25 c30 29 32 58 5 85 -19 19 -34 20 -227 20 -115 0 -246 3
-293 5 -47 2 -92 2 -100 -2z"/>
<path d="M1135 1475 c-30 -29 -31 -45 -4 -79 l20 -26 248 0 c227 0 249 2 264
18 25 27 22 78 -5 96 -19 13 -61 16 -261 16 l-238 0 -24 -25z"/>
<path d="M1126 1095 c-22 -34 -20 -52 9 -80 l24 -25 238 0 c269 0 283 3 283
64 0 64 -8 66 -287 66 l-251 0 -16 -25z"/>
</g>
</svg>
