<?xml version="1.0" standalone="no"?>
<!DOCTYPE svg PUBLIC "-//W3C//DTD SVG 20010904//EN"
 "http://www.w3.org/TR/2001/REC-SVG-20010904/DTD/svg10.dtd">
<svg version="1.0" xmlns="http://www.w3.org/2000/svg"
 width="400.000000pt" height="400.000000pt" viewBox="0 0 400.000000 400.000000"
 preserveAspectRatio="xMidYMid meet">
<metadata>
Created by potrace 1.15, written by Peter Selinger 2001-2017
</metadata>
<g transform="translate(0.000000,400.000000) scale(0.100000,-0.100000)"
fill="#000000" stroke="none">
<path d="M529 3244 c-31 -9 -39 -47 -42 -208 l-2 -159 -87 2 c-91 2 -139 -12
-152 -44 -3 -9 -6 -473 -6 -1031 l0 -1015 25 -24 24 -25 1706 0 1706 0 24 25
25 24 0 1015 c0 558 -3 1022 -6 1031 -13 32 -61 46 -152 44 l-87 -2 -5 164
c-3 99 -10 172 -17 184 -11 20 -22 20 -605 20 -638 0 -629 1 -725 -53 -41 -23
-143 -118 -143 -134 0 -4 -7 -8 -15 -8 -8 0 -15 4 -15 8 0 17 -105 114 -144
135 -102 53 -69 51 -701 53 -324 1 -597 0 -606 -2z m1192 -146 c52 -17 117
-65 149 -110 61 -84 60 -62 60 -1007 l0 -861 -52 40 c-29 22 -78 50 -108 62
-54 22 -65 23 -600 28 l-545 5 -3 928 -2 927 533 0 c379 0 544 -3 568 -12z
m1647 -915 l-3 -928 -545 -5 c-535 -5 -546 -6 -600 -28 -30 -12 -79 -40 -108
-62 l-52 -40 2 882 3 883 28 57 c30 62 85 115 151 147 39 19 61 20 584 21
l542 0 -2 -927z m-2878 -230 c1 -687 3 -791 16 -808 14 -19 30 -20 602 -25
l587 -5 57 -28 c31 -15 73 -46 93 -69 41 -45 82 -126 68 -137 -4 -3 -352 -4
-773 -1 l-765 5 -3 913 c-2 502 -1 920 2 928 4 10 22 14 61 14 l55 0 0 -787z
m3124 772 c8 -21 8 -1450 0 -1666 l-7 -178 -761 -3 c-419 -2 -765 0 -769 3
-14 11 27 92 68 137 20 23 62 54 93 69 l57 28 587 5 c572 5 588 6 602 25 13
17 15 121 16 808 l0 787 54 0 c39 0 55 -4 60 -15z"/>
<path d="M819 2789 c-24 -24 -20 -75 8 -96 13 -10 119 -13 448 -13 481 0 469
-2 469 65 0 67 12 65 -471 65 -427 0 -433 0 -454 -21z"/>
<path d="M839 2425 c-32 -17 -42 -50 -26 -85 l12 -25 447 -3 447 -2 17 26 c22
32 10 73 -26 91 -39 20 -835 18 -871 -2z"/>
<path d="M827 2042 c-25 -27 -22 -78 5 -96 19 -14 79 -16 450 -16 415 0 429 1
448 20 27 27 26 75 -2 94 -20 14 -80 16 -454 16 -405 0 -432 -1 -447 -18z"/>
<path d="M827 1662 c-23 -25 -21 -65 4 -88 20 -18 44 -19 430 -22 471 -3 479
-2 479 65 0 22 -5 44 -12 51 -9 9 -122 12 -448 12 -411 0 -438 -1 -453 -18z"/>
<path d="M2260 2790 c-11 -11 -20 -31 -20 -45 0 -14 9 -34 20 -45 19 -19 33
-20 448 -20 477 0 472 -1 472 64 0 68 12 66 -468 66 -419 0 -433 -1 -452 -20z"/>
<path d="M2265 2415 c-29 -29 -32 -55 -7 -84 17 -21 18 -21 462 -19 l444 3 12
23 c17 34 5 71 -27 87 -23 13 -99 15 -444 15 l-416 0 -24 -25z"/>
<path d="M2267 2042 c-22 -25 -21 -75 1 -95 17 -15 63 -17 450 -17 419 0 433
1 452 20 11 11 20 31 20 45 0 14 -9 34 -20 45 -19 19 -33 20 -453 20 -408 0
-435 -1 -450 -18z"/>
<path d="M2261 1667 c-11 -14 -15 -38 -13 -69 1 -10 15 -24 32 -33 25 -13 91
-15 438 -15 399 0 410 1 436 21 31 24 35 68 8 92 -17 15 -63 17 -454 17 -350
0 -438 -3 -447 -13z"/>
</g>
</svg>
