<?xml version="1.0" standalone="no"?>
<!DOCTYPE svg PUBLIC "-//W3C//DTD SVG 20010904//EN"
 "http://www.w3.org/TR/2001/REC-SVG-20010904/DTD/svg10.dtd">
<svg version="1.0" xmlns="http://www.w3.org/2000/svg"
 width="400.000000pt" height="400.000000pt" viewBox="0 0 400.000000 400.000000"
 preserveAspectRatio="xMidYMid meet">
<metadata>
Created by potrace 1.15, written by Peter Selinger 2001-2017
</metadata>
<g transform="translate(0.000000,400.000000) scale(0.100000,-0.100000)"
fill="#000000" stroke="none">
<path d="M1960 3308 c-14 -6 -34 -14 -45 -18 -11 -4 -31 -12 -45 -18 -14 -5
-41 -15 -60 -22 -19 -7 -44 -16 -55 -20 -11 -4 -36 -13 -55 -20 -19 -7 -44
-16 -55 -20 -11 -4 -47 -18 -80 -30 -33 -12 -69 -26 -80 -30 -11 -4 -47 -18
-80 -30 -33 -12 -69 -26 -80 -30 -11 -4 -36 -13 -55 -20 -19 -7 -44 -16 -55
-20 -11 -4 -47 -18 -80 -30 -33 -12 -69 -26 -80 -30 -11 -4 -36 -13 -55 -20
-19 -7 -44 -16 -55 -20 -11 -4 -47 -18 -80 -30 -33 -12 -69 -26 -80 -30 -11
-4 -36 -13 -55 -20 -19 -7 -44 -16 -55 -20 -11 -4 -46 -17 -77 -29 -32 -12
-84 -30 -115 -42 -32 -12 -67 -25 -78 -29 -11 -4 -36 -13 -55 -20 -76 -27
-100 -41 -106 -65 -15 -61 5 -80 136 -125 19 -7 44 -16 55 -20 11 -4 46 -17
78 -29 31 -12 83 -30 115 -42 31 -12 66 -25 77 -29 11 -5 38 -14 60 -21 22 -7
44 -17 49 -21 6 -4 18 -8 28 -8 10 0 20 -10 23 -23 4 -13 5 -183 3 -379 -3
-299 -1 -357 12 -372 19 -24 144 -117 200 -150 42 -25 210 -108 255 -127 50
-20 206 -68 260 -79 33 -6 69 -14 80 -16 11 -3 88 -11 170 -19 154 -15 289
-10 450 17 62 10 93 17 210 48 43 11 118 38 171 61 25 10 50 19 56 19 14 0 6
-279 -8 -305 -11 -19 -18 -34 -44 -100 -5 -14 -15 -37 -21 -52 -7 -16 -16 -39
-22 -53 -5 -14 -13 -33 -18 -42 -19 -38 -5 -74 38 -96 13 -8 72 -12 153 -12
117 0 135 2 161 21 36 25 38 59 8 127 -26 59 -41 94 -72 172 -5 14 -13 33 -18
42 -5 10 -9 99 -9 198 l0 179 78 52 c42 29 96 68 120 87 l42 34 0 372 c0 204
4 376 8 382 4 7 27 19 52 27 25 8 65 23 90 32 25 9 70 26 100 37 30 11 64 24
75 28 11 4 36 13 55 20 19 7 44 16 55 20 11 4 36 13 55 20 39 13 77 29 100 40
8 4 22 19 30 33 23 42 -1 75 -75 105 -83 34 -95 38 -135 52 -19 7 -44 16 -55
20 -11 4 -46 17 -77 29 -32 12 -84 30 -115 42 -32 12 -67 25 -78 29 -11 4 -46
17 -77 29 -32 12 -84 30 -115 42 -32 12 -67 25 -78 29 -11 4 -36 13 -55 20
-19 7 -44 16 -55 20 -11 4 -47 18 -80 30 -33 12 -69 26 -80 30 -11 4 -46 17
-77 29 -32 12 -84 30 -115 42 -32 12 -67 25 -78 29 -11 4 -47 18 -80 30 -33
12 -69 26 -80 30 -11 4 -36 13 -55 20 -19 7 -44 16 -55 20 -143 57 -129 53
-165 38z m66 -146 c5 -5 29 -15 54 -22 25 -8 50 -16 55 -20 6 -3 28 -12 50
-19 22 -7 49 -16 60 -21 11 -4 47 -18 80 -30 33 -12 69 -26 80 -30 11 -4 36
-13 55 -20 19 -7 44 -16 55 -20 11 -4 46 -17 78 -29 31 -12 83 -30 115 -42 31
-12 66 -25 77 -29 19 -8 56 -21 190 -70 134 -49 171 -62 190 -70 11 -4 47 -18
80 -30 33 -12 69 -26 80 -30 30 -12 128 -48 145 -53 18 -5 -7 -16 -145 -67
-33 -12 -69 -26 -80 -30 -11 -4 -45 -17 -75 -28 -73 -26 -213 -79 -274 -103
-61 -24 -81 -24 -142 0 -76 30 -355 138 -499 193 -71 27 -139 53 -150 58 -11
4 -33 13 -48 21 -16 7 -44 13 -64 13 -43 0 -65 -26 -61 -72 4 -41 10 -45 188
-112 47 -18 94 -36 105 -40 11 -4 67 -26 125 -48 58 -22 145 -56 194 -74 l88
-35 -56 -21 c-53 -21 -91 -35 -218 -81 -60 -21 -196 -73 -278 -104 -82 -32
-101 -29 -255 33 -11 4 -47 18 -80 30 -33 12 -69 26 -80 30 -11 4 -46 17 -77
29 -32 12 -84 30 -115 42 -32 12 -67 25 -78 29 -11 4 -46 17 -77 29 -32 12
-84 30 -115 42 -32 12 -67 25 -78 29 -11 4 -46 17 -77 29 -32 12 -84 30 -115
42 -32 12 -67 25 -78 29 -11 4 -47 18 -80 30 -33 12 -69 26 -80 30 -11 4 -36
13 -55 20 -99 34 -137 52 -120 57 17 5 115 41 145 53 11 4 46 17 78 29 31 12
83 30 115 42 31 12 66 25 77 29 11 4 46 17 78 29 31 12 83 30 115 42 31 12 66
25 77 29 11 4 36 13 55 20 19 7 44 16 55 20 11 4 46 17 78 29 31 12 83 30 115
42 31 12 66 25 77 29 11 4 47 18 80 30 33 12 69 26 80 30 11 5 38 14 60 21 22
7 45 16 50 19 6 4 30 12 55 20 25 7 49 17 55 22 5 4 18 8 30 8 12 0 25 -4 31
-8z m-989 -883 c46 -19 65 -26 126 -48 31 -12 83 -30 115 -42 31 -12 66 -25
77 -29 11 -4 46 -17 78 -29 31 -12 83 -30 115 -42 31 -12 66 -25 77 -29 11 -4
46 -17 78 -29 31 -12 83 -30 115 -42 60 -22 79 -29 125 -48 39 -16 67 -14 123
8 64 25 205 78 269 101 68 24 198 74 293 110 124 48 112 84 112 -324 l0 -354
-35 -16 c-147 -68 -258 -100 -459 -136 -77 -13 -429 -13 -498 1 -130 25 -156
31 -198 41 -87 20 -248 82 -314 119 -10 6 -35 20 -55 31 -20 11 -69 43 -108
72 l-73 51 0 323 c0 177 2 322 5 322 2 0 17 -5 32 -11z m1953 -311 l-1 -323
-50 -39 c-28 -21 -52 -37 -53 -35 -2 2 -5 155 -7 339 l-4 335 45 22 c25 12 51
22 58 23 9 0 12 -71 12 -322z m-176 -1146 c-21 -5 -24 0 -17 27 l6 23 13 -23
c11 -20 10 -25 -2 -27z"/>
</g>
</svg>
