<?xml version="1.0" standalone="no"?>
<!DOCTYPE svg PUBLIC "-//W3C//DTD SVG 20010904//EN"
 "http://www.w3.org/TR/2001/REC-SVG-20010904/DTD/svg10.dtd">
<svg version="1.0" xmlns="http://www.w3.org/2000/svg"
 width="400.000000pt" height="400.000000pt" viewBox="0 0 400.000000 400.000000"
 preserveAspectRatio="xMidYMid meet">
<metadata>
Created by potrace 1.15, written by Peter Selinger 2001-2017
</metadata>
<g transform="translate(0.000000,400.000000) scale(0.100000,-0.100000)"
fill="#000000" stroke="none">
<path d="M1960 3677 l-25 -13 -3 -341 -2 -341 -23 -5 c-12 -2 -94 -24 -182
-47 -88 -23 -211 -55 -272 -71 -62 -16 -165 -42 -228 -59 -63 -16 -166 -43
-227 -59 -208 -54 -222 -59 -240 -81 -15 -19 -18 -43 -18 -165 0 -170 8 -190
79 -187 23 1 50 6 59 11 9 4 31 11 47 14 17 3 38 9 48 12 16 7 17 -7 17 -199
l0 -206 -285 0 c-246 0 -289 -2 -310 -16 -25 -16 -25 -17 -25 -173 0 -86 4
-161 8 -167 12 -19 49 -34 81 -34 l31 0 0 -465 0 -465 -103 0 c-146 0 -141 6
-145 -179 -3 -150 -3 -151 22 -176 l25 -25 1706 0 1706 0 25 25 c25 25 25 26
22 176 -4 185 1 179 -145 179 l-103 0 0 465 0 465 34 0 c19 0 45 9 60 21 l26
20 0 159 c0 157 0 158 -25 174 -21 14 -64 16 -310 16 l-285 0 0 206 c0 192 1
206 18 199 9 -3 31 -9 47 -12 17 -3 38 -10 47 -14 9 -5 36 -10 59 -11 71 -3
79 17 79 187 0 122 -3 146 -18 165 -16 20 -61 36 -162 60 -33 8 -142 36 -360
94 -52 13 -147 38 -210 55 -63 16 -178 46 -255 67 -77 20 -150 39 -163 42 -22
4 -23 8 -20 101 l3 96 166 5 c146 4 170 7 188 24 34 30 26 60 -28 113 l-49 48
49 53 c52 57 58 78 33 117 -16 25 -16 25 -190 25 l-174 0 0 43 c0 23 -6 50
-13 59 -18 24 -58 30 -87 15z m234 -272 c-11 -18 -14 -35 -10 -60 l7 -36 -63
3 -63 3 -3 58 -3 57 76 0 75 0 -16 -25z m-69 -574 c61 -16 155 -41 210 -56 55
-14 133 -35 173 -46 39 -10 107 -28 150 -40 42 -11 120 -32 172 -46 146 -38
233 -61 258 -69 19 -5 22 -13 22 -60 0 -30 -2 -54 -5 -54 -2 0 -30 7 -62 16
-55 15 -109 29 -413 108 -130 33 -211 54 -501 130 -135 36 -136 36 -195 20
-32 -8 -110 -29 -171 -45 -534 -139 -728 -190 -816 -213 -32 -9 -60 -16 -62
-16 -3 0 -5 24 -5 54 0 62 -9 55 117 87 40 11 106 28 146 38 39 11 115 31 167
44 52 14 129 34 170 46 103 27 254 68 380 101 58 15 116 28 130 29 14 0 75
-12 135 -28z m82 -271 c103 -27 224 -59 268 -71 44 -12 112 -30 150 -40 39
-11 108 -30 155 -43 l85 -23 0 -879 0 -879 -120 0 -120 0 -2 450 c-3 445 -3
450 -24 468 -20 16 -64 17 -604 17 -540 0 -584 -1 -604 -17 -21 -18 -21 -23
-24 -468 l-2 -450 -123 -3 -122 -3 2 882 3 882 80 22 c44 12 118 33 165 45 47
12 114 30 150 40 36 10 121 32 190 50 69 18 152 40 185 50 33 10 74 19 92 19
17 1 116 -21 220 -49z m-1217 -814 l0 -67 -242 6 -243 6 -3 46 c-2 25 -1 51 1
57 3 8 79 12 246 15 l241 3 0 -66z m2498 -1 l3 -55 -148 0 c-81 0 -192 -3
-245 -7 l-98 -6 0 68 0 67 243 -6 242 -6 3 -55z m-2498 -661 l0 -464 -182 2
-183 3 -3 462 -2 463 177 2 c98 2 181 2 186 0 4 -2 7 -212 7 -468z m2378 3
l-3 -462 -182 -3 -183 -2 0 463 c0 255 2 466 4 468 2 2 86 3 185 1 l181 -3 -2
-462z m-1438 -62 l0 -405 -215 0 -215 0 0 405 0 405 215 0 215 0 0 -405z m560
0 l0 -405 -215 0 -215 0 0 405 0 405 215 0 215 0 0 -405z m1130 -590 c0 -48
-3 -55 -22 -60 -13 -3 -743 -4 -1623 -3 l-1600 3 -3 58 -3 57 1626 0 1625 0 0
-55z"/>
<path d="M1900 2294 c-226 -82 -291 -353 -125 -519 64 -64 125 -89 220 -89 95
0 156 25 220 89 64 64 89 125 89 220 0 95 -25 156 -89 220 -80 81 -217 115
-315 79z m190 -139 c16 -8 42 -34 58 -57 22 -34 27 -53 27 -102 0 -112 -69
-181 -181 -181 -49 0 -68 5 -102 27 -121 80 -101 274 33 324 47 17 120 12 165
-11z"/>
</g>
</svg>
