<?xml version="1.0" standalone="no"?>
<!DOCTYPE svg PUBLIC "-//W3C//DTD SVG 20010904//EN"
 "http://www.w3.org/TR/2001/REC-SVG-20010904/DTD/svg10.dtd">
<svg version="1.0" xmlns="http://www.w3.org/2000/svg"
 width="400.000000pt" height="400.000000pt" viewBox="0 0 400.000000 400.000000"
 preserveAspectRatio="xMidYMid meet">
<metadata>
Created by potrace 1.15, written by Peter Selinger 2001-2017
</metadata>
<g transform="translate(0.000000,400.000000) scale(0.100000,-0.100000)"
fill="#000000" stroke="none">
<path d="M2182 3720 c-100 -64 -177 -189 -220 -355 -21 -79 -32 -147 -32 -191
0 -49 0 -49 -43 -30 -81 35 -106 40 -201 40 -153 0 -256 -43 -355 -150 -84
-90 -131 -191 -152 -331 -13 -86 -5 -176 26 -298 71 -275 248 -544 415 -631
99 -51 244 -33 332 41 37 31 49 31 86 0 84 -71 231 -91 326 -45 241 116 494
639 447 923 -27 164 -69 255 -161 348 -103 104 -193 142 -340 143 -91 1 -150
-11 -209 -41 -14 -6 -27 -10 -31 -8 -6 4 10 130 24 190 25 102 80 207 135 256
25 23 56 50 69 61 36 32 24 76 -27 103 -28 14 -31 13 -89 -25z m-388 -691 c34
-12 87 -39 118 -60 31 -22 69 -39 83 -39 14 0 52 17 83 38 118 80 241 102 349
63 120 -44 192 -126 230 -261 15 -57 17 -235 1 -297 -51 -212 -147 -402 -259
-513 -63 -62 -99 -80 -164 -80 -68 0 -111 19 -171 75 -27 25 -58 45 -70 45
-11 0 -43 -21 -70 -46 -62 -57 -101 -74 -173 -74 -45 0 -66 6 -102 28 -101 65
-222 254 -282 442 -40 128 -47 167 -47 277 0 109 6 140 45 228 70 157 259 234
429 174z"/>
<path d="M590 1599 c-87 -53 -100 -91 -100 -290 0 -142 2 -164 21 -205 23 -49
64 -85 118 -103 48 -16 2684 -16 2732 0 54 18 95 54 118 103 19 41 21 63 21
211 0 147 -2 168 -21 201 -24 44 -36 57 -80 83 -34 21 -36 21 -1404 21 l-1370
0 -35 -21z m400 -294 l0 -185 -159 0 c-219 0 -211 -7 -211 186 0 194 -11 184
205 184 l165 0 0 -185z m380 0 l0 -185 -125 0 -125 0 0 185 0 185 125 0 125 0
0 -185z m1966 177 c27 -18 34 -56 34 -182 0 -126 -1 -132 -25 -155 l-24 -25
-911 0 -910 0 0 185 0 185 913 0 c501 0 917 -4 923 -8z"/>
<path d="M1903 870 c-1538 -5 -1542 -5 -1569 -26 -15 -11 -42 -37 -58 -58
l-31 -38 -3 -162 c-2 -104 1 -178 8 -206 15 -56 72 -114 125 -129 57 -15 3183
-15 3240 0 51 14 110 73 124 124 14 51 14 308 0 358 -25 92 -120 150 -238 145
-31 -2 -750 -5 -1598 -8z m-1165 -312 l-3 -183 -162 0 c-211 0 -198 -12 -198
186 0 138 2 152 19 165 15 11 58 14 183 14 l163 0 -2 -182z m377 -3 l0 -180
-120 0 -120 0 -3 170 c-1 93 0 175 3 182 3 11 32 13 122 11 l118 -3 0 -180z
m1623 3 l-3 -183 -740 0 -740 0 -3 183 -2 182 745 0 745 0 -2 -182z m377 -3
l0 -180 -120 0 -120 0 -3 170 c-1 93 0 175 3 182 3 11 32 13 122 11 l118 -3 0
-180z m476 175 c18 -10 19 -23 19 -169 0 -125 -3 -161 -14 -170 -10 -8 -70
-13 -178 -14 l-163 -2 -3 183 -2 182 160 0 c92 0 170 -4 181 -10z"/>
</g>
</svg>
